<svg width="101" height="101" viewBox="0 0 101 101" fill="none" xmlns="http://www.w3.org/2000/svg">
<circle cx="50.5" cy="50.5" r="50.5" fill="#3F42FF"/>
<path d="M24.077 52.464C24.077 56.3507 24.2183 59.354 24.501 61.474C24.819 63.5587 25.2607 64.9897 25.826 65.767C26.3913 66.5443 27.045 66.933 27.787 66.933C28.529 66.933 29.1827 66.5443 29.748 65.767C30.3487 64.9543 30.808 63.5057 31.126 61.421C31.4793 59.3363 31.656 56.3507 31.656 52.464C31.656 48.542 31.4793 45.5387 31.126 43.454C30.808 41.3693 30.3487 39.9383 29.748 39.161C29.1827 38.3483 28.529 37.942 27.787 37.942C27.045 37.942 26.3913 38.3307 25.826 39.108C25.2607 39.8853 24.819 41.334 24.501 43.454C24.2183 45.5387 24.077 48.542 24.077 52.464ZM27.787 35.08C30.119 35.08 32.2743 35.6983 34.253 36.935C36.267 38.1717 37.8747 40.0797 39.076 42.659C40.3127 45.203 40.931 48.4713 40.931 52.464C40.931 56.4213 40.3127 59.6897 39.076 62.269C37.8747 64.813 36.267 66.721 34.253 67.993C32.2743 69.2297 30.119 69.848 27.787 69.848C25.455 69.848 23.2997 69.2297 21.321 67.993C19.3423 66.721 17.7523 64.813 16.551 62.269C15.385 59.6897 14.802 56.4213 14.802 52.464C14.802 48.4713 15.385 45.203 16.551 42.659C17.7523 40.0797 19.3423 38.1717 21.321 36.935C23.2997 35.6983 25.455 35.08 27.787 35.08ZM55.9602 70.855L53.0982 69L76.4182 34.285L79.2802 36.14L55.9602 70.855ZM51.0842 45.892C51.0842 48.2947 51.1726 50.1497 51.3492 51.457C51.5612 52.729 51.8439 53.6123 52.1972 54.107C52.5859 54.5663 53.0099 54.796 53.4692 54.796C53.9639 54.796 54.3879 54.5663 54.7412 54.107C55.1299 53.6123 55.4302 52.729 55.6422 51.457C55.8542 50.1497 55.9602 48.2947 55.9602 45.892C55.9602 43.454 55.8542 41.599 55.6422 40.327C55.4302 39.0197 55.1299 38.1187 54.7412 37.624C54.3879 37.1293 53.9639 36.882 53.4692 36.882C53.0099 36.882 52.5859 37.1293 52.1972 37.624C51.8439 38.0833 51.5612 38.9667 51.3492 40.274C51.1726 41.5813 51.0842 43.454 51.0842 45.892ZM53.4692 35.08C54.9532 35.08 56.3312 35.4687 57.6032 36.246C58.9106 37.0233 59.9529 38.207 60.7302 39.797C61.5076 41.387 61.8962 43.4187 61.8962 45.892C61.8962 48.33 61.5076 50.344 60.7302 51.934C59.9529 53.4887 58.9106 54.6547 57.6032 55.432C56.3312 56.2093 54.9532 56.598 53.4692 56.598C51.9852 56.598 50.6072 56.2093 49.3352 55.432C48.0632 54.6547 47.0386 53.4887 46.2612 51.934C45.5192 50.344 45.1482 48.33 45.1482 45.892C45.1482 43.4187 45.5192 41.387 46.2612 39.797C47.0386 38.207 48.0632 37.0233 49.3352 36.246C50.6072 35.4687 51.9852 35.08 53.4692 35.08ZM75.9942 58.771C75.9942 61.1737 76.0826 63.0287 76.2592 64.336C76.4712 65.608 76.7539 66.4913 77.1072 66.986C77.4959 67.4453 77.9199 67.675 78.3792 67.675C78.8739 67.675 79.2979 67.4453 79.6512 66.986C80.0399 66.4913 80.3402 65.608 80.5522 64.336C80.7642 63.0287 80.8702 61.1737 80.8702 58.771C80.8702 56.333 80.7642 54.478 80.5522 53.206C80.3402 51.8987 80.0399 50.9977 79.6512 50.503C79.2979 50.0083 78.8739 49.761 78.3792 49.761C77.9199 49.761 77.4959 50.0083 77.1072 50.503C76.7539 50.9623 76.4712 51.8457 76.2592 53.153C76.0826 54.4603 75.9942 56.333 75.9942 58.771ZM78.3792 47.959C79.8632 47.959 81.2412 48.3477 82.5132 49.125C83.8206 49.9023 84.8629 51.086 85.6402 52.676C86.4176 54.266 86.8062 56.2977 86.8062 58.771C86.8062 61.209 86.4176 63.223 85.6402 64.813C84.8629 66.3677 83.8206 67.5337 82.5132 68.311C81.2412 69.0883 79.8632 69.477 78.3792 69.477C76.8952 69.477 75.5172 69.0883 74.2452 68.311C72.9732 67.5337 71.9486 66.3677 71.1712 64.813C70.4292 63.223 70.0582 61.209 70.0582 58.771C70.0582 56.2977 70.4292 54.266 71.1712 52.676C71.9486 51.086 72.9732 49.9023 74.2452 49.125C75.5172 48.3477 76.8952 47.959 78.3792 47.959Z" fill="white"/>
</svg>
